<svg width="448" height="422" fill="none" xmlns="http://www.w3.org/2000/svg"><path d="M68 145.6v-2h-2v2h2zm0 140.8h-2v2h2v-2zm20.2 0h2v-2h-2v2zm0 29.6v2h2v-2h-2zm-54.6 0h-2v2h2v-2zm0-200v-2h-2v2h2zm54.6 0h2v-2h-2v2zm0 29.6v2h2v-2h-2zm-22.2 0v140.8h4V145.6h-4zm2 142.8h20.2v-4H68v4zm18.2-2V316h4v-29.6h-4zm2 27.6H33.6v4h54.6v-4zm-52.6 2V116h-4v200h4zm-2-198h54.6v-4H33.6v4zm52.6-2v29.6h4V116h-4zm2 27.6H68v4h20.2v-4zM209.972 263l1.029 1.715-1.029-1.715zm-101.4 9h-2v2h2v-2zm0-140v-2h-2v2h2zm83 4l-.652 1.891.01.003.642-1.894zm18.6 12l-1.524 1.295.008.01.008.009 1.508-1.314zm1.4 37.4l-1.616-1.179-.01.014-.011.015 1.637 1.15zm-14.4 11.8l-.863-1.804-4.25 2.032 4.414 1.646.699-1.874zm19.8 13.2l1.48-1.345-1.48 1.345zm-69.6-48.8v-2h-2v2h2zm0 25.6h-2v2h2v-2zm0 55.2h-2v2h2v-2zm31-3l-.871-1.8-.012.005-.012.006.895 1.789zm0-23l-.846 1.812.036.017.036.015.774-1.844zm-31-2.8v-2h-2v2h2zm75.6 19.6c0 13.32-4.754 22.52-14.029 28.085l2.058 3.43c10.725-6.435 15.971-17.102 15.971-31.515h-4zm-14.029 28.085c-9.57 5.742-22.963 8.715-40.371 8.715v4c17.791 0 31.998-3.027 42.429-9.285l-2.058-3.43zM168.572 270h-60v4h60v-4zm-58 2V132h-4v140h4zm-2-138h56.4v-4h-56.4v4zm56.4 0c9.826 0 18.465 1.31 25.948 3.891l1.304-3.782c-7.984-2.753-17.078-4.109-27.252-4.109v4zm25.958 3.894c7.588 2.572 13.459 6.391 17.718 11.401l3.048-2.59c-4.808-5.657-11.337-9.838-19.482-12.599l-1.284 3.788zm17.734 11.42c4.166 4.779 6.308 10.887 6.308 18.486h4c0-8.401-2.392-15.493-7.293-21.114l-3.015 2.628zm6.308 18.486c0 6.427-1.694 11.869-5.016 16.421l3.231 2.358c3.878-5.314 5.785-11.606 5.785-18.779h-4zm-5.037 16.45c-3.245 4.618-7.762 8.341-13.626 11.146l1.726 3.608c6.403-3.062 11.485-7.206 15.173-12.454l-3.273-2.3zm-13.462 14.824c7.586 2.829 13.913 7.055 19.019 12.671l2.96-2.69c-5.561-6.117-12.434-10.691-20.581-13.729l-1.398 3.748zm19.019 12.671c4.941 5.435 7.48 12.526 7.48 21.455h4c0-9.737-2.794-17.847-8.52-24.145l-2.96 2.69zm-55.52-52.145h-12.6v4h12.6v-4zm-14.6 2v25.6h4v-25.6h-4zm2 27.6h12.6v-4h-12.6v4zm12.6 0c5.745 0 10.423-1.133 13.695-3.735 3.359-2.671 4.905-6.619 4.905-11.465h-4c0 3.954-1.221 6.606-3.395 8.335-2.262 1.798-5.883 2.865-11.205 2.865v4zm18.6-15.2c0-4.624-1.579-8.382-4.953-10.902-3.265-2.439-7.923-3.498-13.647-3.498v4c5.342 0 8.985 1.008 11.253 2.702 2.159 1.613 3.347 4.056 3.347 7.698h4zm-31.2 70.4h16.2v-4h-16.2v4zm16.2 0c6.084 0 11.344-1.036 15.694-3.211l-1.789-3.578c-3.649 1.825-8.256 2.789-13.905 2.789v4zm15.671-3.2c5.06-2.448 7.329-7.403 7.329-14h-4c0 5.669-1.864 8.848-5.071 10.4l1.742 3.6zm7.329-14c0-2.975-.562-5.611-1.816-7.796-1.269-2.211-3.174-3.826-5.611-4.848l-1.547 3.688c1.697.712 2.892 1.763 3.689 3.152.813 1.415 1.285 3.313 1.285 5.804h4zm-7.354-12.612c-4.337-2.024-9.579-2.988-15.646-2.988v4c5.666 0 10.291.903 13.954 2.612l1.692-3.624zm-15.646-2.988h-16.2v4h16.2v-4zm-18.2 2v28.8h4v-28.8h-4zm110.858 47.6l-1.33 1.494.005.005.006.005 1.319-1.504zm-.4-70.4l1.327 1.496.001-.001-1.328-1.495zm77.8-.8l1.345-1.48-1.345 1.48zm13.2 39.2h-2v.091l.008.09 1.992-.181zm-.2 4v2h1.604l.348-1.566-1.952-.434zm-69.6 0v-2h-2.334l.357 2.306 1.977-.306zm39.2 6.4l.373-1.965-1.396-.265-.71 1.231 1.733.999zm31.6 6l1.768.934 1.265-2.394-2.66-.505-.373 1.965zm-70.4-30.2l-1.963-.382-.465 2.382h2.428v-2zm32.4 0v2h2.173l-.18-2.166-1.993.166zm-4.6-11.2l-1.449 1.379.017.018.017.017 1.415-1.414zm-8.6 67.8c-16.877 0-29.819-4.183-39.082-12.304l-2.637 3.008C265.115 271.65 279.106 276 296.63 276v-4zm-39.07-12.294c-9.247-8.233-13.93-19.391-13.93-33.706h-4c0 15.285 5.05 27.594 15.27 36.694l2.66-2.988zM243.63 226c0-14.614 4.57-25.756 13.527-33.704l-2.655-2.992c-9.976 8.852-14.872 21.177-14.872 36.696h4zm13.528-33.705C266.291 184.177 278.965 180 295.43 180v-4c-17.136 0-30.862 4.357-40.929 13.305l2.657 2.99zM295.43 180c16.369 0 28.548 3.928 36.854 11.48l2.691-2.96c-9.293-8.448-22.581-12.52-39.545-12.52v4zm36.854 11.48c8.281 7.528 12.546 18.396 12.546 32.92h4c0-15.343-4.536-27.408-13.855-35.88l-2.691 2.96zm12.546 32.92V229.2h4v-.009-.01-.009-.01-.009-.009-.01-.009-.009-.01-.009-.01-.009-.009-.01-.009-.009-.01-.009-.01-.009-.009-.01-.009-.009-.01-.009-.009-.01-.009-.01-.009-.009-.01-.009-.01-.009-.009-.01-.009-.009-.01-.009-.01-.009-.009-.01-.009-.009-.01-.009-.01-.009-.009-.01-.009-.009-.01-.009-.01-.009-.009-.01-.009-.009-.01-.009-.01-.009-.009-.01-.009-.009-.01-.009-.01-.009-.009-.01-.009-.009-.01-.009-.01-.009-.009-.01-.009-.009-.01-.009-.01-.009-.009-.01-.009-.009-.01-.009-.01-.009-.009-.01-.009-.009-.01-.009-.009-.01-.009-.01-.009-.009-.01-.009-.01-.009-.009-.01-.009-.009-.01-.009-.01-.009-.009-.01V228v-.009-.01-.009-.01-.009-.009-.01-.009-.009-.01-.009-.01-.009-.009-.01-.009-.009-.01-.009-.01-.009-.009-.01-.009-.009-.01-.009-.01-.009-.009-.01-.009-.009-.01-.009-.01-.009-.009-.01-.009-.009-.01-.009-.01-.009-.009-.01-.009-.009-.01-.009-.01-.009-.009-.01-.009-.009-.01-.009-.009-.01-.009-.01-.009-.009-.01-.009-.01-.009-.009-.01-.009-.009-.01-.009-.01-.009-.009-.01-.009-.009-.01-.009-.01-.009-.009-.01-.009-.009-.01-.009-.01-.009-.009-.01-.009-.009-.01-.009-.01-.009-.009-.01-.009-.009-.01-.009-.01-.009-.009-.01-.009-.009-.01-.009-.01-.009-.009-.01-.009-.009-.01-.009-.009-.01-.009-.01-.009-.009-.01-.009-.01-.009-.009-.01-.009-.009-.01-.009-.009-.01-.009-.01-.009-.009-.01-.009-.01-.009-.009-.01-.009-.009-.01-.009-.01-.009-.009-.01-.009-.009-.01-.009-.009-.01-.009-.01-.009-.009-.01-.009-.01-.009-.009-.01-.009-.009-.01-.009-.01-.009-.009-.01-.009-.009-.01-.009-.01-.009-.009-.01-.009-.009-.01-.009-.01-.009-.009-.01-.009-.009-.01-.009-.009-.01-.009-.01-.009-.009-.01-.009-.01-.009-.009-.01-.009-.009-.01-.009-.009-.01-.009-.01-.009-.009-.01-.009-.01-.009-.009-.01-.009-.009-.01-.009-.01-.009-.009-.01-.009-.009-.01-.009-.009-.01-.009-.01-.009-.009-.01-.009-.01-.009-.009-.01-.009-.009-.01-.009-.01-.009-.009-.01-.009-.009-.01-.009-.01-.009-.009-.01-.009-.009-.01-.009-.01-.009-.009-.01-.009-.009-.01-.009-.009-.01-.009-.01-.009-.009-.01-.009-.01-.009-.009-.01-.009-.009-.01-.009-.009-.01-.009-.01-.009-.009-.01-.009-.01-.009-.009-.01-.009-.009-.01-.009-.01-.009-.009-.01V225v-.009-.01-.009-.009-.01-.009-.01-.009-.009-.01-.009-.01-.009-.009-.01-.009-.009-.01-.009-.01-.009-.009-.01-.009-.009-.01-.009-.01-.009-.009-.01-.009-.009-.01-.009-.01-.009-.009-.01-.009-.009-.01-.009-.009-.01-.009-.01-.009-.009-.01-.009-.01-.009-.009-.01-.009-.009-.01-.009-.009-.01-.009-.01-.009h-4zm.008 4.981c.118 1.3.053 2.422-.161 3.385l3.905.868c.319-1.437.388-2.982.239-4.615l-3.983.362zm1.792 1.819h-69.6v4h69.6v-4zm-71.577 2.306c.911 5.887 3.02 10.568 6.528 13.771 3.526 3.22 8.222 4.723 13.849 4.723v-4c-4.907 0-8.545-1.297-11.152-3.677-2.625-2.397-4.45-6.116-5.272-11.429l-3.953.612zM295.43 252c10.386 0 18.087-3.696 22.532-11.401l-3.465-1.998c-3.555 6.162-9.721 9.399-19.067 9.399v4zm20.427-10.435l31.6 6 .746-3.93-31.6-6-.746 3.93zm30.204 3.101c-4.837 9.158-11.34 15.958-19.501 20.485-8.175 4.534-18.124 6.849-29.93 6.849v4c12.326 0 22.977-2.418 31.87-7.351 8.905-4.94 15.935-12.34 21.098-22.115l-3.537-1.868zM294.63 198c-5.108 0-9.421 1.394-12.734 4.36-3.291 2.946-5.376 7.248-6.429 12.658l3.926.764c.946-4.857 2.728-8.255 5.171-10.442 2.42-2.167 5.706-3.34 10.066-3.34v-4zm-17.2 19.4h32.4v-4h-32.4v4zm34.393-2.166c-.428-5.138-2.094-9.363-5.179-12.448l-2.829 2.828c2.249 2.248 3.65 5.49 4.022 9.952l3.986-.332zm-5.145-12.413c-3.098-3.253-7.184-4.821-12.048-4.821v4c3.935 0 6.916 1.232 9.151 3.579l2.897-2.758zm73.116 83.579v2h2v-2h-2zm0-140.8h2v-2h-2v2zm-20.2 0h-2v2h2v-2zm0-29.6v-2h-2v2h2zm54.8 0h2v-2h-2v2zm0 200v2h2v-2h-2zm-54.8 0h-2v2h2v-2zm0-29.6v-2h-2v2h2zm22.2 0V145.6h-4v140.8h4zm-2-142.8h-20.2v4h20.2v-4zm-18.2 2V116h-4v29.6h4zm-2-27.6h54.8v-4h-54.8v4zm52.8-2v200h4V116h-4zm2 198h-54.8v4h54.8v-4zm-52.8 2v-29.6h-4V316h4zm-2-27.6h20.2v-4h-20.2v4z" fill="#F1F1F1" opacity=".5"/></svg>