<svg width="48" height="48" viewBox="0 0 48 48" fill="none" xmlns="http://www.w3.org/2000/svg">
<path d="M9.20648 15.537V32.463H11.3275V34.5H6.93848V13.5H11.3275V15.537H9.20648Z" fill="#121212"/>
<path d="M23.5541 25.638C23.5541 26.604 23.3231 27.402 22.8611 28.032C22.4131 28.662 21.7901 29.131 20.9921 29.439C20.2081 29.733 19.2981 29.88 18.2621 29.88H13.5791V15.18H18.0101C19.4101 15.18 20.5441 15.488 21.4121 16.104C22.2801 16.706 22.7141 17.63 22.7141 18.876C22.7141 19.618 22.5111 20.248 22.1051 20.766C21.6991 21.27 21.1391 21.655 20.4251 21.921C21.3351 22.159 22.0841 22.586 22.6721 23.202C23.2601 23.804 23.5541 24.616 23.5541 25.638ZM17.8421 17.217H16.0571V21.081H17.8421C18.5281 21.081 19.0881 20.913 19.5221 20.577C19.9561 20.227 20.1731 19.751 20.1731 19.149C20.1731 18.533 19.9561 18.057 19.5221 17.721C19.0881 17.385 18.5281 17.217 17.8421 17.217ZM16.0571 27.843H18.1151C18.9551 27.843 19.6481 27.64 20.1941 27.234C20.7401 26.814 21.0131 26.198 21.0131 25.386C21.0131 24.588 20.7401 23.993 20.1941 23.601C19.6481 23.209 18.9551 23.013 18.1151 23.013H16.0571V27.843Z" fill="#121212"/>
<path d="M30.3919 30.09C29.3979 30.09 28.5299 29.88 27.7879 29.46C27.0459 29.04 26.4719 28.452 26.0659 27.696C25.6599 26.94 25.4569 26.058 25.4569 25.05C25.4569 24.028 25.6599 23.146 26.0659 22.404C26.4859 21.648 27.0739 21.06 27.8299 20.64C28.5859 20.22 29.4749 20.01 30.4969 20.01C32.0229 20.01 33.2059 20.451 34.0459 21.333C34.8999 22.201 35.3269 23.405 35.3269 24.945C35.3269 25.071 35.3199 25.197 35.3059 25.323C35.3059 25.435 35.3059 25.519 35.3059 25.575H27.7879C27.8719 26.415 28.1449 27.066 28.6069 27.528C29.0829 27.99 29.7129 28.221 30.4969 28.221C31.7289 28.221 32.6529 27.71 33.2689 26.688L35.2429 27.465C34.2349 29.215 32.6179 30.09 30.3919 30.09ZM30.4759 21.732C29.0059 21.732 28.1309 22.488 27.8509 24H32.8489C32.8069 23.314 32.5689 22.768 32.1349 22.362C31.7009 21.942 31.1479 21.732 30.4759 21.732Z" fill="#121212"/>
<path d="M38.7937 32.463V15.537H36.6727V13.5H41.0617V34.5H36.6727V32.463H38.7937Z" fill="#121212"/>
</svg>
