<svg width="47" height="47" fill="none" xmlns="http://www.w3.org/2000/svg"><path fill="#F1F1F1" d="M0 0h47v47H0z"/><path d="M8.284 16.657v16.926h2.121v2.037H6.016v-21h4.389v2.037H8.284zm14.348 10.101c0 .966-.231 1.764-.693 2.394-.448.63-1.071 1.099-1.87 1.407-.783.294-1.693.441-2.73.441h-4.682V16.3h4.43c1.4 0 2.535.308 3.403.924.868.602 1.302 1.526 1.302 2.772 0 .742-.203 1.372-.61 1.89-.405.504-.965.889-1.68 1.155.91.238 1.66.665 2.248 1.281.588.602.882 1.414.882 2.436zm-5.712-8.421h-1.785v3.864h1.785c.686 0 1.246-.168 1.68-.504.434-.35.65-.826.65-1.428 0-.616-.216-1.092-.65-1.428-.434-.336-.994-.504-1.68-.504zm-1.785 10.626h2.058c.84 0 1.533-.203 2.079-.609.546-.42.819-1.036.819-1.848 0-.798-.273-1.393-.82-1.785-.545-.392-1.238-.588-2.078-.588h-2.058v4.83zm14.334 2.247c-.994 0-1.862-.21-2.604-.63a4.352 4.352 0 01-1.722-1.764c-.406-.756-.609-1.638-.609-2.646 0-1.022.203-1.904.61-2.646a4.455 4.455 0 011.763-1.764c.756-.42 1.645-.63 2.667-.63 1.526 0 2.71.441 3.55 1.323.853.868 1.28 2.072 1.28 3.612 0 .126-.007.252-.02.378v.252h-7.519c.084.84.357 1.491.82 1.953.475.462 1.105.693 1.89.693 1.231 0 2.155-.511 2.771-1.533l1.974.777c-1.008 1.75-2.625 2.625-4.85 2.625zm.084-8.358c-1.47 0-2.345.756-2.625 2.268h4.998c-.042-.686-.28-1.232-.714-1.638-.434-.42-.987-.63-1.659-.63zm8.318 10.731V16.657h-2.12V14.62h4.388v21H35.75v-2.037h2.121z" fill="#121212"/></svg>