<svg width="24" height="24" fill="none" xmlns="http://www.w3.org/2000/svg"><path d="M21.89 3.563H2.11C.943 3.563 0 4.513 0 5.671v12.656c0 1.167.95 2.11 2.11 2.11h19.78c1.156 0 2.11-.94 2.11-2.11V5.672c0-1.158-.94-2.11-2.11-2.11zm-.295 1.406l-8.103 8.06a2.096 2.096 0 01-1.492.619c-.563 0-1.093-.22-1.493-.62l-8.102-8.06h19.19zM1.406 18.042V5.959l6.077 6.045-6.077 6.038zm1 .99l6.074-6.037 1.034 1.03A3.493 3.493 0 0012 15.053c.939 0 1.822-.366 2.485-1.029l1.035-1.03 6.074 6.036H2.406zm20.188-.99l-6.077-6.038 6.077-6.045v12.083z" fill="#121212"/></svg>